<svg width="34" height="34" viewBox="0 0 34 34" fill="none" xmlns="http://www.w3.org/2000/svg">
<g id="arcticons:password">
<path id="Vector" d="M17 17.9067C16.4941 17.9086 16.0027 18.0767 15.6016 18.3851C15.2005 18.6935 14.9117 19.1251 14.7798 19.6135C14.6478 20.102 14.6799 20.6202 14.8712 21.0887C15.0624 21.5571 15.4022 21.9497 15.8383 22.2063V25.5H18.19V22.2063C18.5351 22.0021 18.8214 21.7122 19.0213 21.3647C19.2211 21.0171 19.3276 20.6238 19.3304 20.2229V20.2229C19.3304 19.9175 19.2701 19.6152 19.1528 19.3332C19.0355 19.0513 18.8636 18.7953 18.647 18.5801C18.4304 18.3648 18.1734 18.1945 17.8908 18.0789C17.6081 17.9633 17.3054 17.9048 17 17.9067V17.9067Z" stroke="#39722B" stroke-width="0.416667" stroke-linecap="round" stroke-linejoin="round"/>
<path id="Vector_2" d="M25.7055 12.5871H8.28754C6.59755 12.5871 5.22754 13.9571 5.22754 15.6471V27.7525C5.22754 29.4425 6.59755 30.8125 8.28754 30.8125H25.7055C27.3954 30.8125 28.7655 29.4425 28.7655 27.7525V15.6471C28.7655 13.9571 27.3954 12.5871 25.7055 12.5871Z" stroke="#39722B" stroke-width="0.416667" stroke-linecap="round" stroke-linejoin="round"/>
<path id="Vector_3" d="M9.4563 12.5871V10.7383C9.4563 8.73573 10.2518 6.81514 11.6679 5.39909C13.0839 3.98303 15.0045 3.1875 17.0071 3.1875C19.0097 3.1875 20.9303 3.98303 22.3464 5.39909C23.7624 6.81514 24.558 8.73573 24.558 10.7383V12.5871" stroke="#39722B" stroke-width="0.416667" stroke-linecap="round" stroke-linejoin="round"/>
</g>
</svg>
