<svg width="34" height="34" viewBox="0 0 34 34" fill="none" xmlns="http://www.w3.org/2000/svg">
<g id="arcticons:mail">
<path id="Vector" d="M28.1067 10.2921L17 18.4663L5.89334 10.2921M4.58293 7.58625C4.2072 7.58625 3.84687 7.73551 3.58119 8.00118C3.31552 8.26686 3.16626 8.6272 3.16626 9.00292V25.0183C3.16626 25.3941 3.31552 25.7544 3.58119 26.0201C3.84687 26.2857 4.2072 26.435 4.58293 26.435H29.4171C29.7928 26.435 30.1531 26.2857 30.4188 26.0201C30.6845 25.7544 30.8338 25.3941 30.8338 25.0183V8.98167C30.8338 8.60595 30.6845 8.24561 30.4188 7.97993C30.1531 7.71426 29.7928 7.565 29.4171 7.565H4.58293V7.58625Z" stroke="#39722B" stroke-width="0.416667" stroke-linecap="round" stroke-linejoin="round"/>
</g>
</svg>
